Simulation
nRows=28
nColumns=15
endheader
time  TH_x TH_y TH_z SC_y  SC_z  SC_x  AC_y  AC_z  AC_x  GH_y  GH_z  GH_yy  EL_x  PS_y
8.6175  0.000000  0.000000  0.000000  -38.12857150592403  0.494653988103511  -7.618538532226243  45.05238965600883  10.26051322531222  4.478597612978123  39.713125515391056  4.06473020616099  -24.788368670432686  20.57225308556429  120.000000
8.6558  0.000000  0.000000  0.000000  -38.1121137180196  0.4436637800853576  -7.694590059478307  45.105650182394854  10.324236126957256  4.502700456489216  38.1368197630312  4.3049614127220766  -23.42491483257635  20.508161074580418  120.000000
8.6941  0.000000  0.000000  0.000000  -38.060951709284254  0.33351503056030435  -7.820413972693213  45.25366231114627  10.407176032040091  4.603293605935804  37.16149742904362  4.674764542543292  -22.643136336523575  20.520517327687713  120.000000
8.7324  0.000000  0.000000  0.000000  -37.97613415323031  0.17297921136965355  -7.991880768101144  45.4962723389142  10.508957668205237  4.789371448820094  37.04358087440256  5.189897890472018  -22.704169097408208  20.613474405945333  120.000000
8.7707  0.000000  0.000000  0.000000  -37.862750067495895  -0.01915303500535391  -8.202786107148077  45.823435156714694  10.63408487829527  5.060209433590619  37.88388238527813  5.865324099262715  -23.721426702146065  20.778222577805273  120.000000
8.809000000000001  0.000000  0.000000  0.000000  -37.72862161786714  -0.21591022178677693  -8.444833552989703  46.216700821037364  10.789877550953028  5.407903845572546  39.606766471003915  6.715826564312638  -25.637362108827418  20.996259201977846  120.000000
8.8473  0.000000  0.000000  0.000000  -37.58323943140611  -0.3868693386515965  -8.707018351440338  46.651738090640265  10.983183957531665  5.821731343664532  42.011094508267895  7.7554503975060625  -28.27113455264768  21.24400673722463  120.000000
8.8856  0.000000  0.000000  0.000000  -37.43596119519414  -0.503082788280141  -8.975595909126444  47.10299298075652  11.217511951690257  6.291283446985848  44.84578106901685  8.99565398348337  -31.391270920840824  21.49740011958753  120.000000
8.9239  0.000000  0.000000  0.000000  -37.294654136834296  -0.5407702503251414  -9.23464231550932  47.54980466789487  11.49152681423783  6.807692697015031  47.87179131509992  10.44321632935756  -34.77523425327568  21.73593052381324  120.000000
8.9622  0.000000  0.000000  0.000000  -37.16500919861148  -0.4832240147676572  -9.466492353489496  47.98057290624301  11.798924078947477  7.364063074654318  50.89352534987868  12.098272177927951  -38.23937680565188  21.945227516209822  120.000000
9.0005  0.000000  0.000000  0.000000  -37.05271272452607  -0.32223250046114327  -9.651661210626395  48.39327451437596  12.129731424977486  7.955301199338164  53.76624211528262  13.953153586107579  -41.6459835944517  22.11742636162993  120.000000
9.0388  0.000000  0.000000  0.000000  -36.96457453603253  -0.05662035611195986  -9.769392595074427  48.794371858422316  12.471707919683107  8.576855519364356  56.394641056468664  15.9917758199307  -44.901916522460034  22.24976359341685  120.000000
9.0771  0.000000  0.000000  0.000000  -36.90793205189805  0.3109294304146176  -9.798200899112526  49.19654790742231  12.811229742490895  9.223834289668103  58.728409633517764  18.190196600974613  -47.95424468288398  22.34221318862777  120.000000
9.115400000000001  0.000000  0.000000  0.000000  -36.89258193100207  0.7751418438999315  -9.715505454916421  49.616217002458114  13.135644813083143  9.889914657674352  60.75118572209649  20.520566891989937  -50.77932160770542  22.396330880258137  120.000000
9.1537  0.000000  0.000000  0.000000  -36.93066691103988  1.3291578646794036  -9.497609040482505  50.06991556276557  13.434820827790604  10.566579824298882  62.468784952181274  22.955178070836997  -53.37197932141162  22.413691153925352  120.000000
9.192  0.000000  0.000000  0.000000  -37.03458817539157  1.9669533815598474  -9.120351547115355  50.570910182555295  13.700883822095136  11.243539913357655  63.9024526464074  25.468263466786524  -55.73933473040487  22.39458220713807  120.000000
9.2303  0.000000  0.000000  0.000000  -37.21541427459888  2.6851055354516955  -8.559824965372437  51.1259552327635  13.926726667527477  11.910900920673154  65.08501827805658  28.035812901958675  -57.89750667946762  22.337263520158647  120.000000
9.2686  0.000000  0.000000  0.000000  -37.4815910558511  3.481755756434011  -7.793171249706514  51.734743467710985  14.105595411614782  12.560152752270064  66.05566959537505  30.635949088971717  -59.86789729815445  22.238190916133014  120.000000
9.3069  0.000000  0.000000  0.000000  -37.8376821084826  4.355352055647644  -6.799648677739859  52.391053109058596  14.231188677848333  13.184720308320784  66.8549299917428  33.248981988285756  -61.67373973774871  22.092999694749206  120.000000
9.3452  0.000000  0.000000  0.000000  -38.284503325365485  5.303276365198444  -5.5620781356411735  53.08357110425739  14.297321707224995  13.780860144416824  67.5203688808099  35.856654499089196  -63.33746624744818  21.89814244148528  120.000000
9.3835  0.000000  0.000000  0.000000  -38.8197576482904  6.32013098100848  -4.068727989259042  53.7970430904779  14.297721217047824  14.347892306766191  68.08277281796474  38.441134295299314  -64.8787320621434  21.652580856928875  120.000000
9.421800000000001  0.000000  0.000000  0.000000  -39.438834861846544  7.396672898889624  -2.315478946615853  54.51455789452928  14.226470456570292  14.88673622277812  68.56291407892843  40.9845387425281  -66.31300996540223  21.35956846358534  120.000000
9.4601  0.000000  0.000000  0.000000  -40.13585666927873  8.518925860317276  -0.3073685105760321  55.21881999606274  14.07848338047602  15.398927865643728  68.9706403529077  43.467700309565046  -67.6510613618977  21.02723859360766  120.000000
9.4984  0.000000  0.000000  0.000000  -40.90475843296636  9.667686467842948  1.9409299881460413  55.893240893825556  13.850288650600683  15.885454824233321  69.30649190982112  45.86912369243036  -68.89907086308122  20.66785263799921  120.000000
9.5367  0.000000  0.000000  0.000000  -41.73882704733099  10.81868917432949  4.405254679104635  56.52282570757066  13.54095859084802  16.345669118564548  69.56499460251705  48.16437284875836  -70.05912827075527  20.295793126057934  120.000000
9.575  0.000000  0.000000  0.000000  -42.629690947406125  11.944251150018948  7.052489993301046  57.095058992936416  13.152520845570399  16.776387446091864  69.73874967018435  50.326461937812965  -71.12998889692378  19.925591918512662  120.000000
9.6133  0.000000  0.000000  0.000000  -43.565839032318095  13.015563605384529  9.841071889411719  57.600434159947795  12.689730843571256  17.171735053342747  69.82255887317191  52.3271168729184  -72.10772126827877  19.570433709667853  120.000000
9.6516  0.000000  0.000000  0.000000  -44.53091634515399  14.005658118208823  12.721646549598992  58.03265564276382  12.159188132585365  17.524013615204982  69.81708864644408  54.13876287298877  -72.98675077322089  19.24086374099504  120.000000
